<?xml version="1.0" encoding="UTF-8"?>
<svg xmlns="http://www.w3.org/2000/svg" xmlns:xlink="http://www.w3.org/1999/xlink" width="250px" height="99px" viewBox="0 0 172 50" version="1.1">
<g id="surface1">
<path style=" stroke:none;fill-rule:nonzero;fill:rgb(100%,100%,100%);fill-opacity:1;" d="M 37.890625 19.695312 C 47.871094 19.695312 57.839844 19.695312 68.117188 19.695312 C 66.207031 21.929688 64.371094 24.023438 62.3125 26.09375 C 62.046875 26.351562 61.789062 26.617188 61.523438 26.882812 C 60.671875 27.734375 59.824219 28.585938 58.980469 29.429688 C 58.386719 30.03125 57.792969 30.625 57.203125 31.21875 C 55.960938 32.460938 54.726562 33.695312 53.488281 34.9375 C 51.894531 36.523438 50.3125 38.117188 48.71875 39.710938 C 47.503906 40.9375 46.277344 42.164062 45.0625 43.390625 C 44.476562 43.976562 43.890625 44.5625 43.296875 45.148438 C 42.484375 45.96875 41.675781 46.78125 40.855469 47.601562 C 40.394531 48.0625 39.925781 48.53125 39.449219 49.007812 C 38.398438 50 38.398438 50 37.890625 50 C 37.890625 40 37.890625 30 37.890625 19.695312 Z M 37.890625 19.695312 "/>
<path style=" stroke:none;fill-rule:nonzero;fill:rgb(100%,100%,100%);fill-opacity:1;" d="M 30.335938 0 C 30.335938 10 30.335938 20 30.335938 30.304688 C 20.359375 30.304688 10.386719 30.304688 0.109375 30.304688 C 2.023438 28.070312 3.855469 25.976562 5.914062 23.90625 C 6.179688 23.648438 6.4375 23.382812 6.703125 23.117188 C 7.554688 22.265625 8.40625 21.414062 9.246094 20.570312 C 9.839844 19.96875 10.433594 19.375 11.027344 18.78125 C 12.265625 17.539062 13.5 16.304688 14.742188 15.0625 C 16.332031 13.476562 17.917969 11.882812 19.507812 10.289062 C 20.726562 9.0625 21.949219 7.835938 23.167969 6.609375 C 23.753906 6.023438 24.335938 5.4375 24.929688 4.851562 C 25.742188 4.03125 26.554688 3.21875 27.371094 2.398438 C 27.832031 1.9375 28.300781 1.46875 28.777344 0.992188 C 29.832031 0 29.832031 0 30.335938 0 Z M 30.335938 0 "/>
<path style=" stroke:none;fill-rule:nonzero;fill:rgb(100%,100%,100%);fill-opacity:1;" d="M 140.3125 17.742188 C 142.730469 19.4375 144.285156 21.4375 145.1875 24.242188 C 145.515625 27.617188 145.734375 30.992188 143.675781 33.835938 C 141.507812 36.4375 139.257812 37.671875 135.902344 38.101562 C 133.585938 37.8125 132.105469 37 130.074219 35.859375 C 129.910156 38.523438 129.75 41.195312 129.578125 43.9375 C 128.242188 43.9375 126.914062 43.9375 125.542969 43.9375 C 125.542969 35.273438 125.542969 26.609375 125.542969 17.679688 C 126.542969 17.679688 127.539062 17.679688 128.570312 17.679688 C 128.734375 18.507812 128.898438 19.34375 129.070312 20.203125 C 129.539062 19.796875 130.003906 19.390625 130.488281 18.96875 C 133.257812 16.5625 136.941406 16.59375 140.3125 17.742188 Z M 130.074219 23.234375 C 129.375 24.648438 129.453125 25.851562 129.421875 27.429688 C 129.398438 28 129.382812 28.570312 129.359375 29.164062 C 129.617188 31.132812 130.214844 31.921875 131.589844 33.335938 C 133.445312 34.46875 135.070312 34.476562 137.160156 34.148438 C 138.769531 33.632812 139.625 32.601562 140.65625 31.3125 C 141.648438 29.320312 141.390625 26.921875 141.164062 24.75 C 140.15625 22.773438 139.460938 21.929688 137.636719 20.710938 C 134.257812 20.09375 132.410156 20.78125 130.074219 23.234375 Z M 130.074219 23.234375 "/>
<path style=" stroke:none;fill-rule:nonzero;fill:rgb(100%,100%,100%);fill-opacity:1;" d="M 94.308594 10.609375 C 95.472656 10.609375 96.640625 10.609375 97.835938 10.609375 C 97.835938 19.273438 97.835938 27.9375 97.835938 36.867188 C 96.835938 36.867188 95.847656 36.867188 94.816406 36.867188 C 94.652344 36.367188 94.480469 35.867188 94.308594 35.351562 C 93.714844 35.835938 93.714844 35.835938 93.117188 36.335938 C 90.703125 37.929688 87.957031 38.164062 85.140625 37.6875 C 82.394531 36.84375 80.75 35.203125 79.195312 32.828125 C 77.753906 29.867188 77.613281 26.492188 78.648438 23.367188 C 79.898438 20.640625 81.046875 19.023438 83.730469 17.679688 C 85.148438 17.203125 86.15625 17.054688 87.636719 17.015625 C 88.253906 16.984375 88.253906 16.984375 88.886719 16.953125 C 90.285156 17.171875 90.285156 17.171875 93.808594 19.195312 C 93.972656 16.359375 94.136719 13.523438 94.308594 10.609375 Z M 83.730469 22.21875 C 82.082031 24.617188 81.761719 26.96875 82.222656 29.796875 C 83.332031 32.015625 84.472656 33.359375 86.757812 34.34375 C 88.730469 34.640625 89.605469 34.4375 91.382812 33.492188 C 93.125 32.054688 94.144531 31.03125 94.449219 28.734375 C 94.550781 26.203125 94.269531 24.351562 92.804688 22.21875 C 91.03125 20.703125 89.472656 20.460938 87.226562 20.5625 C 85.726562 20.78125 84.875 21.242188 83.730469 22.21875 Z M 83.730469 22.21875 "/>
<path style=" stroke:none;fill-rule:nonzero;fill:rgb(100%,100%,100%);fill-opacity:1;" d="M 148.214844 10.609375 C 149.792969 10.351562 150.722656 10.21875 152.242188 10.609375 C 153.710938 11.921875 154.699219 13.507812 155.769531 15.148438 C 156.433594 16.085938 157.085938 17.023438 157.75 17.960938 C 158.265625 18.710938 158.78125 19.453125 159.296875 20.203125 C 159.640625 19.71875 159.976562 19.242188 160.324219 18.742188 C 160.777344 18.101562 161.230469 17.460938 161.691406 16.828125 C 161.910156 16.507812 162.136719 16.195312 162.363281 15.867188 C 162.808594 15.242188 163.25 14.625 163.703125 14 C 164.265625 13.226562 164.820312 12.4375 165.375 11.648438 C 166.347656 10.609375 166.347656 10.609375 167.425781 10.359375 C 167.777344 10.390625 168.128906 10.421875 168.488281 10.445312 C 169.113281 10.5 169.734375 10.554688 170.375 10.609375 C 169.734375 12.382812 168.988281 13.789062 167.855469 15.296875 C 167.566406 15.6875 167.277344 16.078125 166.980469 16.484375 C 166.363281 17.304688 165.757812 18.117188 165.148438 18.9375 C 164.859375 19.328125 164.5625 19.71875 164.265625 20.125 C 164 20.476562 163.734375 20.835938 163.460938 21.195312 C 162.792969 22.265625 162.425781 22.984375 162.316406 24.242188 C 162.761719 25.195312 162.761719 25.195312 163.5 26.085938 C 163.898438 26.59375 163.898438 26.59375 164.296875 27.117188 C 164.578125 27.46875 164.859375 27.828125 165.148438 28.1875 C 165.695312 28.882812 166.230469 29.585938 166.777344 30.28125 C 167.042969 30.617188 167.308594 30.960938 167.582031 31.3125 C 170.882812 35.585938 170.882812 35.585938 170.882812 36.867188 C 169.3125 37.09375 167.910156 37.164062 166.347656 36.867188 C 165.054688 35.867188 164.273438 34.617188 163.421875 33.242188 C 162.964844 32.554688 162.511719 31.875 162.058594 31.195312 C 161.847656 30.875 161.636719 30.546875 161.417969 30.210938 C 160.613281 29.007812 159.71875 27.882812 158.789062 26.765625 C 158.601562 27.070312 158.414062 27.382812 158.21875 27.695312 C 157.34375 29.078125 156.449219 30.445312 155.550781 31.820312 C 155.246094 32.296875 154.949219 32.78125 154.644531 33.28125 C 152.359375 36.710938 152.359375 36.710938 150.488281 37.1875 C 149.347656 37.1875 148.316406 37.101562 147.203125 36.867188 C 148.949219 33.65625 151.015625 30.75 153.171875 27.804688 C 153.5625 27.257812 153.5625 27.257812 153.96875 26.695312 C 154.199219 26.375 154.441406 26.046875 154.683594 25.710938 C 155.324219 24.648438 155.675781 23.960938 155.769531 22.726562 C 155.199219 21.546875 155.199219 21.546875 154.292969 20.390625 C 153.976562 19.953125 153.65625 19.507812 153.335938 19.054688 C 152.820312 18.375 152.820312 18.375 152.304688 17.679688 C 151.640625 16.773438 150.988281 15.867188 150.324219 14.960938 C 150.027344 14.5625 149.738281 14.164062 149.425781 13.75 C 148.746094 12.671875 148.433594 11.851562 148.214844 10.609375 Z M 148.214844 10.609375 "/>
<path style=" stroke:none;fill-rule:nonzero;fill:rgb(100%,100%,100%);fill-opacity:1;" d="M 116.664062 17.742188 C 119.597656 19.84375 120.722656 21.695312 121.382812 25.179688 C 121.515625 26.265625 121.515625 26.265625 121.515625 28.28125 C 116.53125 28.28125 111.539062 28.28125 106.402344 28.28125 C 107.832031 32.804688 107.832031 32.804688 110.429688 33.835938 C 112.949219 34.070312 114.457031 33.882812 116.476562 32.320312 C 116.8125 31.820312 117.140625 31.320312 117.484375 30.804688 C 119.308594 30.710938 119.308594 30.710938 121.007812 30.804688 C 120.867188 33.109375 119.855469 34.453125 118.355469 36.101562 C 116.546875 37.695312 114.542969 37.828125 112.222656 38.039062 C 109.15625 37.765625 106.847656 37.046875 104.703125 34.75 C 102.308594 31.625 102.113281 28.429688 102.582031 24.585938 C 103.140625 22.03125 104.210938 20.140625 106.261719 18.492188 C 109.484375 16.59375 113.175781 16.578125 116.664062 17.742188 Z M 107.410156 22.726562 C 107.074219 23.5625 106.746094 24.390625 106.402344 25.25 C 110.0625 25.25 113.714844 25.25 117.484375 25.25 C 116.382812 21.960938 116.382812 21.960938 115.125 20.992188 C 111.917969 20.210938 109.703125 20.226562 107.410156 22.726562 Z M 107.410156 22.726562 "/>
</g>
</svg>
