<?xml version="1.0" encoding="UTF-8"?>
<svg version="1.1" xmlns="http://www.w3.org/2000/svg" width="341" height="99">
<path d="M0 0 C19.8 0 39.6 0 60 0 C56.20834147 4.42360162 52.55902163 8.56685624 48.46948242 12.65991211 C47.95327332 13.17787354 47.43706421 13.69583496 46.9052124 14.22949219 C45.22444461 15.91460729 43.54011073 17.59610245 41.85546875 19.27734375 C40.6780207 20.45546627 39.50072105 21.63373714 38.32356262 22.81214905 C35.87007913 25.2670993 33.41481459 27.72025018 30.95825195 30.17211914 C27.80279266 33.32184384 24.65189484 36.4760878 21.50228405 39.63165951 C19.07897374 42.05857094 16.65330227 44.48311106 14.22689247 46.90692329 C13.06308821 48.07005899 11.90003042 49.23394206 10.7377224 50.39857292 C9.12206237 52.01675614 7.50326051 53.63172723 5.88354492 55.24584961 C4.96232346 56.16627548 4.04110199 57.08670135 3.09196472 58.03501892 C1 60 1 60 0 60 C0 40.2 0 20.4 0 0 Z " fill="#FFFFFF" transform="translate(75,39)"/>
<path d="M0 0 C0 19.8 0 39.6 0 60 C-19.8 60 -39.6 60 -60 60 C-56.20834147 55.57639838 -52.55902163 51.43314376 -48.46948242 47.34008789 C-47.95327332 46.82212646 -47.43706421 46.30416504 -46.9052124 45.77050781 C-45.22444461 44.08539271 -43.54011073 42.40389755 -41.85546875 40.72265625 C-40.6780207 39.54453373 -39.50072105 38.36626286 -38.32356262 37.18785095 C-35.87007913 34.7329007 -33.41481459 32.27974982 -30.95825195 29.82788086 C-27.80279266 26.67815616 -24.65189484 23.5239122 -21.50228405 20.36834049 C-19.07897374 17.94142906 -16.65330227 15.51688894 -14.22689247 13.09307671 C-13.06308821 11.92994101 -11.90003042 10.76605794 -10.7377224 9.60142708 C-9.12206237 7.98324386 -7.50326051 6.36827277 -5.88354492 4.75415039 C-4.96232346 3.83372452 -4.04110199 2.91329865 -3.09196472 1.96498108 C-1 0 -1 0 0 0 Z " fill="#FFFFFF" transform="translate(60,0)"/>
<path d="M0 0 C4.81271919 3.35771106 7.88233667 7.31509696 9.6875 12.875 C10.33107885 19.55317534 10.76973266 26.24433426 6.6875 31.875 C2.38112928 37.01872058 -2.07878456 39.46343622 -8.75 40.3125 C-13.34702895 39.74795259 -16.28452561 38.13631896 -20.3125 35.875 C-20.6425 41.155 -20.9725 46.435 -21.3125 51.875 C-23.9525 51.875 -26.5925 51.875 -29.3125 51.875 C-29.3125 34.715 -29.3125 17.555 -29.3125 -0.125 C-27.3325 -0.125 -25.3525 -0.125 -23.3125 -0.125 C-22.9825 1.525 -22.6525 3.175 -22.3125 4.875 C-21.384375 4.070625 -20.45625 3.26625 -19.5 2.4375 C-13.99080263 -2.33713772 -6.69330448 -2.27319775 0 0 Z M-20.3125 10.875 C-21.71115903 13.67231805 -21.55787267 16.06784559 -21.625 19.1875 C-21.66238281 20.31800781 -21.69976562 21.44851562 -21.73828125 22.61328125 C-21.22761085 26.52529765 -20.04057897 28.08663199 -17.3125 30.875 C-13.622894 33.12975922 -10.40698866 33.13716554 -6.24609375 32.4921875 C-3.05937294 31.47501197 -1.36257388 29.42206149 0.6875 26.875 C2.6596491 22.93070181 2.13617961 18.17383571 1.6875 13.875 C-0.30218453 9.96424075 -1.67783646 8.29810902 -5.3125 5.875 C-12.01493004 4.66217933 -15.68931085 6.02065139 -20.3125 10.875 Z " fill="#FFFFFF" transform="translate(278.3125,35.125)"/>
<path d="M0 0 C2.31 0 4.62 0 7 0 C7 17.16 7 34.32 7 52 C5.02 52 3.04 52 1 52 C0.67 51.01 0.34 50.02 0 49 C-1.175625 49.9590625 -1.175625 49.9590625 -2.375 50.9375 C-7.16758479 54.10241448 -12.61663902 54.56787861 -18.2109375 53.62890625 C-23.65100896 51.9510298 -26.91946462 48.70186979 -30 44 C-32.86845651 38.13270259 -33.1511342 31.44846212 -31.08984375 25.2734375 C-28.6084588 19.86385873 -26.34016771 16.67008385 -21 14 C-18.18171822 13.06057274 -16.18778331 12.77417373 -13.25 12.6875 C-12.02023438 12.63142578 -12.02023438 12.63142578 -10.765625 12.57421875 C-8 13 -8 13 -1 17 C-0.67 11.39 -0.34 5.78 0 0 Z M-21 23 C-24.2794032 27.7494805 -24.90475417 32.39052413 -24 38 C-21.80328355 42.3934329 -19.54102011 45.05384852 -15 47 C-11.07239081 47.58496307 -9.34540059 47.18285914 -5.8125 45.3125 C-2.35439692 42.4691708 -0.32565064 40.44237977 0.28125 35.890625 C0.48278567 30.88582252 -0.08445459 27.22251404 -3 23 C-6.5055242 19.99526497 -9.60129312 19.51658387 -14.07421875 19.71875 C-17.03783918 20.15157083 -18.73050794 21.05472109 -21 23 Z " fill="#FFFFFF" transform="translate(187,21)"/>
<path d="M0 0 C3.14281943 -0.49623465 4.97750476 -0.7609451 8 0 C10.90399278 2.60251895 12.87737669 5.7494356 15 9 C16.30944244 10.85632723 17.62185766 12.71056169 18.9375 14.5625 C19.96073497 16.04000632 20.98247395 17.51855629 22 19 C22.67546875 18.04738281 23.3509375 17.09476563 24.046875 16.11328125 C24.9478398 14.8462995 25.84888577 13.57937548 26.75 12.3125 C27.1934375 11.68666016 27.636875 11.06082031 28.09375 10.41601562 C28.97303008 9.18114434 29.85805976 7.95034517 30.74902344 6.72387695 C31.86867337 5.18097138 32.96705281 3.62268236 34.0625 2.0625 C36 0 36 0 38.140625 -0.48828125 C38.83671875 -0.43027344 39.5328125 -0.37226563 40.25 -0.3125 C41.4875 -0.209375 42.725 -0.10625 44 0 C42.72233093 3.51118974 41.2378282 6.30153808 38.99609375 9.28515625 C38.42052734 10.06310547 37.84496094 10.84105469 37.25195312 11.64257812 C36.03903699 13.26023484 34.82549177 14.87742005 33.61132812 16.49414062 C33.03705078 17.27080078 32.46277344 18.04746094 31.87109375 18.84765625 C31.34443115 19.54898682 30.81776855 20.25031738 30.27514648 20.97290039 C28.94539555 23.08680467 28.21953431 24.51070937 28 27 C28.87401959 28.89384341 28.87401959 28.89384341 30.3515625 30.64453125 C31.13466797 31.66063477 31.13466797 31.66063477 31.93359375 32.69726562 C32.49175781 33.39529297 33.04992187 34.09332031 33.625 34.8125 C34.70123597 36.19345338 35.77676309 37.5749595 36.8515625 38.95703125 C37.37782227 39.62943848 37.90408203 40.3018457 38.44628906 40.99462891 C45 49.45348837 45 49.45348837 45 52 C41.89427813 52.44477959 39.09420193 52.58339064 36 52 C33.43563816 50.01135607 31.89016872 47.5484774 30.1875 44.8125 C29.28577596 43.46442902 28.38344372 42.11676464 27.48046875 40.76953125 C27.0632959 40.12580566 26.64612305 39.48208008 26.21630859 38.81884766 C24.6175979 36.42816225 22.83969523 34.20849194 21 32 C20.62302979 32.60585938 20.24605957 33.21171875 19.85766602 33.8359375 C18.12487708 36.57927817 16.34498714 39.28871432 14.5625 42 C13.97017578 42.95390625 13.37785156 43.9078125 12.76757812 44.890625 C8.22576033 51.69120779 8.22576033 51.69120779 4.51904297 52.625 C2.25593553 52.625 0.21333459 52.4569465 -2 52 C1.46859843 45.64230263 5.56846645 39.89009365 9.84179688 34.05273438 C10.62200195 32.96895508 10.62200195 32.96895508 11.41796875 31.86328125 C11.89000732 31.21657471 12.3620459 30.56986816 12.84838867 29.90356445 C14.11413352 27.81134215 14.81410724 26.44753935 15 24 C13.86380234 21.6683068 13.86380234 21.6683068 12.0703125 19.375 C11.43996094 18.50359375 10.80960937 17.6321875 10.16015625 16.734375 C9.15275391 15.38085938 9.15275391 15.38085938 8.125 14 C6.80973976 12.21226763 5.4996161 10.42074182 4.1953125 8.625 C3.60766113 7.83351563 3.02000977 7.04203125 2.41455078 6.2265625 C1.05858729 4.09221886 0.43366648 2.47084123 0 0 Z " fill="#FFFFFF" transform="translate(294,21)"/>
<path d="M0 0 C5.82645647 4.16175462 8.04504707 7.83304429 9.36328125 14.7265625 C9.625 16.875 9.625 16.875 9.625 20.875 C-0.275 20.875 -10.175 20.875 -20.375 20.875 C-17.5404633 29.8220244 -17.5404633 29.8220244 -12.375 31.875 C-7.37373056 32.32966086 -4.38393908 31.96761015 -0.375 28.875 C0.285 27.885 0.945 26.895 1.625 25.875 C5.25 25.6875 5.25 25.6875 8.625 25.875 C8.34864279 30.43489395 6.33768735 33.09391723 3.36328125 36.359375 C-0.24386801 39.50448492 -4.21253205 39.7693211 -8.8125 40.1875 C-14.9032162 39.65322665 -19.49025545 38.22708179 -23.75 33.6875 C-28.49710458 27.49168776 -28.89633686 21.15848156 -27.96875 13.55859375 C-26.84758282 8.49121313 -24.72017694 4.75220513 -20.65234375 1.49609375 C-14.26046967 -2.27078071 -6.92243886 -2.30747962 0 0 Z M-18.375 9.875 C-19.035 11.525 -19.695 13.175 -20.375 14.875 C-13.115 14.875 -5.855 14.875 1.625 14.875 C-0.55429536 8.35850694 -0.55429536 8.35850694 -3.0625 6.4375 C-9.41675449 4.89187053 -13.82032854 4.91844577 -18.375 9.875 Z " fill="#FFFFFF" transform="translate(231.375,35.125)"/>
</svg>
